<?xml version="1.0" encoding="UTF-8" standalone="no"?>
<svg
   version="1.1"
   id="Layer_1"
   x="0px"
   y="0px"
   viewBox="0 0 115.19 123.38"
   style="enable-background:new 0 0 115.19 123.38"
   xml:space="preserve"
   sodipodi:docname="image-not-found.svg"
   inkscape:version="1.1.1 (3bf5ae0d25, 2021-09-20)"
   xmlns:inkscape="http://www.inkscape.org/namespaces/inkscape"
   xmlns:sodipodi="http://sodipodi.sourceforge.net/DTD/sodipodi-0.dtd"
   xmlns="http://www.w3.org/2000/svg"
   xmlns:svg="http://www.w3.org/2000/svg"><defs
     id="defs11" /><sodipodi:namedview
     id="namedview9"
     pagecolor="#ffffff"
     bordercolor="#999999"
     borderopacity="1"
     inkscape:pageshadow="0"
     inkscape:pageopacity="0"
     inkscape:pagecheckerboard="0"
     showgrid="false"
     inkscape:zoom="7.5261316"
     inkscape:cx="73.809498"
     inkscape:cy="41.987041"
     inkscape:window-width="1920"
     inkscape:window-height="1053"
     inkscape:window-x="0"
     inkscape:window-y="27"
     inkscape:window-maximized="1"
     inkscape:current-layer="g6" /><style
     type="text/css"
     id="style2">.st0{fill-rule:evenodd;clip-rule:evenodd;stroke:#000000;stroke-width:0.5;stroke-miterlimit:2.6131;}</style><g
     id="g6"><path
       class="st0"
       d="m 93.13,79.499999 c 12.05,0 21.82,9.77 21.82,21.820001 0,12.05 -9.77,21.82 -21.82,21.82 -12.05,0 -21.82,-9.77 -21.82,-21.82 0,-12.050001 9.77,-21.820001 21.82,-21.820001 z M 8.08,0.25 h 95.28 c 2.17,0 4.11,0.89 5.53,2.3 1.42,1.4199999 2.3,3.39 2.3,5.5299999 V 78.089999 c -2.46,-1.91 -5.24,-3.44 -8.25,-4.48 V 9.9799998 c 0,-0.4299999 -0.16,-0.7899999 -0.46,-1.0499999 -0.26,-0.2600001 -0.66,-0.46 -1.05,-0.46 H 9.94 c -0.43,0 -0.79,0.16 -1.05,0.46 -0.26,0.26 -0.46,0.65 -0.46,1.0499999 V 79.999998 H 8.46 L 40.43,49.389999 c 1.28,-1.179999 3.29,-1.05 4.44,0.23 0.03,0.03 0.03,0.07 0.07,0.07 l 26.88,31.8 c -4.73,5.18 -7.62,12.08 -7.62,19.650001 0,3.29 0.55,6.45 1.55,9.39999 H 8.08 c -2.17,0 -4.11,-0.88999 -5.53,-2.3 C 1.13,106.83 0.25,104.85 0.25,102.71 V 8.0799999 C 0.25,5.91 1.14,3.9699999 2.55,2.55 3.96,1.13 5.94,0.25 8.08,0.25 Z m 65.9,79.099999 3.71,-22.79 c 0.3,-1.71 1.91,-2.899999 3.62,-2.599999 0.66,0.1 1.25,0.429999 1.71,0.859999 l 17.1,17.97 c -2.18,-0.52 -4.44,-0.79 -6.78,-0.79 -7.43,-0.01001 -14.21,2.769999 -19.36,7.35 z M 81.98,18.19 c 3.13,0 5.99,1.28 8.03,3.32 2.07,2.069999 3.32,4.9 3.32,8.03 0,3.129999 -1.28,5.989999 -3.32,8.029999 -2.07,2.07 -4.9,3.320001 -8.03,3.320001 -3.13,0 -5.99,-1.280001 -8.03,-3.320001 -2.07,-2.069999 -3.32,-4.9 -3.32,-8.029999 0,-3.13 1.28,-5.99 3.32,-8.03 2.07,-2.07 4.91,-3.32 8.03,-3.32 z M 85.82,88.049999 105.78,109.65 c 1.58,-2.39 2.5,-5.25 2.5,-8.33 0,-8.360001 -6.78,-15.140001 -15.14,-15.140001 -2.66,-0.01001 -5.15,0.67 -7.32,1.87 z M 100.44,114.58 80.48,92.979999 c -1.58,2.39 -2.5,5.249999 -2.5,8.330001 0,8.36 6.78,15.14 15.14,15.14 2.66,0.0104 5.15,-0.67 7.32,-1.87 z"
       id="path4"
       style="fill:#1d1f22;fill-opacity:0.33333334;stroke:none;stroke-opacity:0.33333334" /></g></svg>
